<?xml version="1.0" standalone="no"?>
<!DOCTYPE svg PUBLIC "-//W3C//DTD SVG 1.1//EN"
  "http://www.w3.org/Graphics/SVG/1.1/DTD/svg11.dtd">
<!-- Created with matplotlib (http://matplotlib.sourceforge.net/) -->
<svg width="720" height="144" viewBox="0 0 720 144"
   xmlns="http://www.w3.org/2000/svg"
   xmlns:xlink="http://www.w3.org/1999/xlink"
   version="1.1"
   id="svg1">
<g id="figure1">
<polygon style="fill: #ffffff; stroke: #ffffff; stroke-width: 1.000000; stroke-linejoin: miter; stroke-linecap: square;  opacity: 1.000000; " points = "0.000000,144.000000 0.000000,0.000000 720.000000,0.000000 720.000000,144.000000"/>
<g id="axes1">
<polygon style="fill: #ffffff; stroke: #000000; stroke-width: 1.000000; stroke-linejoin: miter; stroke-linecap: square;  opacity: 1.000000; " points = "90.000000,129.600000 90.000000,14.400000 648.000000,14.400000 648.000000,129.600000"/>
<defs>
    <clipPath id="667498303">
    <rect x="90.000000" y="14.400000" width="558.000000" height="115.200000"
    style="stroke: gray; fill: none;"/>
    </clipPath>
</defs>
<path style="fill: none; stroke: #0000ff; stroke-width: 1.000000; stroke-linejoin: miter; stroke-linecap: square;  opacity: 1.000000; clip-path:url(#667498303);" d="M 90.000000,77.788460 L 92.179688,68.497000 L 94.359375,63.586252 L 96.539062,65.887710 L 98.718750,68.203112 L 100.898438,74.049583 L 103.078125,84.598008 L 105.257812,93.004406 L 107.437500,89.683555 L 109.617188,86.956336 L 111.796875,89.452753 L 113.976562,91.088357 L 116.156250,91.973368 L 118.335938,99.470562 L 120.515625,102.672600 L 122.695312,104.193342 L 124.875000,105.158527 L 127.054688,105.202437 L 129.234375,101.967114 L 131.414062,91.220250 L 133.593750,82.225257 L 135.773438,83.318183 L 137.953125,86.092581 L 140.132812,75.795406 L 142.312500,65.469557 L 144.492188,66.535836 L 146.671875,77.276172 L 148.851562,82.213402 L 151.031250,78.274795 L 153.210938,74.425665 L 155.390625,75.775218 L 157.570312,79.767158 L 159.750000,85.469207 L 161.929688,92.532710 L 164.109375,95.877937 L 166.289062,87.852668 L 168.468750,77.402866 L 170.648438,77.628931 L 172.828125,94.307727 L 175.007812,111.505499 L 177.187500,112.016569 L 179.367188,98.533179 L 181.546875,92.621532 L 183.726562,90.536491 L 185.906250,94.205869 L 188.085938,110.564737 L 190.265625,122.319347 L 192.445312,121.500105 L 194.625000,113.189596 L 196.804688,96.701141 L 198.984375,76.741980 L 201.164062,70.564609 L 203.343750,73.124188 L 205.523438,72.227322 L 207.703125,78.014477 L 209.882812,85.008430 L 212.062500,88.524904 L 214.242188,82.692609 L 216.421875,81.905505 L 218.601562,92.105804 L 220.781250,102.880808 L 222.960938,101.192294 L 225.140625,88.574600 L 227.320312,84.079031 L 229.500000,86.635478 L 231.679688,91.423449 L 233.859375,95.008055 L 236.039062,97.819536 L 238.218750,101.329142 L 240.398438,110.089804 L 242.578125,117.543228 L 244.757812,111.365708 L 246.937500,103.821030 L 249.117188,103.952461 L 251.296875,101.152458 L 253.476562,91.728460 L 255.656250,92.167620 L 257.835938,95.619048 L 260.015625,94.904739 L 262.195312,88.381724 L 264.375000,82.778667 L 266.554688,87.714642 L 268.734375,102.336185 L 270.914062,107.986706 L 273.093750,102.268346 L 275.273438,98.412659 L 277.453125,99.774004 L 279.632812,102.263986 L 281.812500,100.716284 L 283.992188,93.090526 L 286.171875,88.262038 L 288.351562,80.858274 L 290.531250,75.700522 L 292.710938,90.316134 L 294.890625,102.355526 L 297.070312,98.175896 L 299.250000,90.604480 L 301.429688,85.561114 L 303.609375,77.461863 L 305.789062,80.758242 L 307.968750,86.621108 L 310.148438,75.149766 L 312.328125,72.382830 L 314.507812,78.370929 L 316.687500,84.922044 L 318.867188,84.755281 L 321.046875,86.732150 L 323.226562,83.056663 L 325.406250,79.018260 L 327.585938,81.556522 L 329.765625,85.760663 L 331.945312,93.555668 L 334.125000,93.533584 L 336.304688,83.095089 L 338.484375,69.126516 L 340.664062,61.721786 L 342.843750,66.539392 L 345.023438,82.453058 L 347.203125,97.985468 L 349.382812,87.242018 L 351.562500,69.998063 L 353.742188,67.978492 L 355.921875,79.769548 L 358.101562,87.940102 L 360.281250,85.818320 L 362.460938,91.647091 L 364.640625,107.959475 L 366.820312,116.439790 L 369.000000,113.992239 L 371.179688,110.990625 L 373.359375,103.813246 L 375.539062,95.425060 L 377.718750,93.885850 L 379.898438,92.828276 L 382.078125,95.620071 L 384.257812,104.024441 L 386.437500,99.969096 L 388.617188,96.642861 L 390.796875,92.485341 L 392.976562,88.816751 L 395.156250,90.014926 L 397.335938,94.228439 L 399.515625,81.916367 L 401.695312,59.278886 L 403.875000,55.439535 L 406.054688,66.296918 L 408.234375,74.555768 L 410.414062,64.541031 L 412.593750,45.336452 L 414.773438,36.690959 L 416.953125,39.753349 L 419.132812,46.373165 L 421.312500,47.424243 L 423.492188,49.866258 L 425.671875,58.202455 L 427.851562,58.363537 L 430.031250,39.371846 L 432.210938,22.104578 L 434.390625,32.124839 L 436.570312,40.394968 L 438.750000,42.991385 L 440.929688,56.792199 L 443.109375,70.116940 L 445.289062,71.289446 L 447.468750,66.000615 L 449.648438,63.084486 L 451.828125,59.928820 L 454.007812,52.556827 L 456.187500,53.534760 L 458.367188,68.685141 L 460.546875,81.857112 L 462.726562,80.699870 L 464.906250,86.693573 L 467.085938,91.169934 L 469.265625,85.067171 L 471.445312,77.256381 L 473.625000,73.637115 L 475.804688,74.427644 L 477.984375,83.580948 L 480.164062,101.427061 L 482.343750,102.940529 L 484.523438,82.202602 L 486.703125,80.863129 L 488.882812,98.441099 L 491.062500,99.425755 L 493.242188,90.093188 L 495.421875,92.503615 L 497.601562,94.639163 L 499.781250,80.477004 L 501.960938,62.186166 L 504.140625,64.597544 L 506.320312,83.515596 L 508.500000,93.417020 L 510.679688,91.766357 L 512.859375,91.571385 L 515.039062,88.014252 L 517.218750,81.964685 L 519.398438,77.974235 L 521.578125,82.123583 L 523.757812,95.969311 L 525.937500,100.225648 L 528.117188,94.707418 L 530.296875,93.019135 L 532.476562,94.874021 L 534.656250,99.480046 L 536.835938,108.357575 L 539.015625,118.595884 L 541.195312,108.075318 L 543.375000,84.061759 L 545.554688,74.094218 L 547.734375,76.746932 L 549.914062,84.986163 L 552.093750,100.712337 L 554.273438,103.759177 L 556.453125,87.446672 L 558.632812,81.333418 L 560.812500,87.600250 L 562.992188,88.353532 L 565.171875,92.933361 L 567.351562,95.283844 L 569.531250,99.655468 L 571.710938,96.234963 L 573.890625,84.123524 L 576.070312,92.516657 L 578.250000,115.073845 L 580.429688,104.108732 L 582.609375,82.640241 L 584.789062,89.333926 L 586.968750,89.195602 L 589.148438,81.562520 L 591.328125,88.638481 L 593.507812,101.278672 L 595.687500,101.986368 L 597.867188,104.510105 L 600.046875,107.969123 L 602.226562,99.343047 L 604.406250,81.952209 L 606.585938,71.533096 L 608.765625,77.246789 L 610.945312,72.076954 L 613.125000,67.890892 L 615.304688,75.400513 L 617.484375,83.701856 L 619.664062,86.340609 L 621.843750,89.390671 L 624.023438,82.591865 L 626.203125,70.279670 L 628.382812,66.825456 L 630.562500,78.281771 L 632.742188,93.513175 L 634.921875,103.859580 L 637.101562,106.925915 L 639.281250,99.284516 L 641.460938,90.015690 L 643.640625,98.978134 L 645.820312,114.841007 "/>
<g id="matplotlib.axis1">
<g id="xtick1">
<text style="font-size: 12.000000; font-family: Verdana; font-style: Regular; fill: #000000;" x="81.000000" y="142.600000" >0.0</text>
</g>
<g id="xtick2">
<path style="fill: none; stroke: #000000; stroke-width: 0.500000; stroke-linejoin: miter; stroke-linecap: butt;  opacity: 1.000000; " d="M 201.600000,129.600000 L 201.600000,125.600000"/>
<path style="fill: none; stroke: #000000; stroke-width: 0.500000; stroke-linejoin: miter; stroke-linecap: butt;  opacity: 1.000000; " d="M 201.600000,18.400000 L 201.600000,14.400000"/>
<text style="font-size: 12.000000; font-family: Verdana; font-style: Regular; fill: #000000;" x="192.600000" y="142.600000" >0.2</text>
</g>
<g id="xtick3">
<path style="fill: none; stroke: #000000; stroke-width: 0.500000; stroke-linejoin: miter; stroke-linecap: butt;  opacity: 1.000000; " d="M 313.200000,129.600000 L 313.200000,125.600000"/>
<path style="fill: none; stroke: #000000; stroke-width: 0.500000; stroke-linejoin: miter; stroke-linecap: butt;  opacity: 1.000000; " d="M 313.200000,18.400000 L 313.200000,14.400000"/>
<text style="font-size: 12.000000; font-family: Verdana; font-style: Regular; fill: #000000;" x="303.700000" y="142.600000" >0.4</text>
</g>
<g id="xtick4">
<path style="fill: none; stroke: #000000; stroke-width: 0.500000; stroke-linejoin: miter; stroke-linecap: butt;  opacity: 1.000000; " d="M 424.800000,129.600000 L 424.800000,125.600000"/>
<path style="fill: none; stroke: #000000; stroke-width: 0.500000; stroke-linejoin: miter; stroke-linecap: butt;  opacity: 1.000000; " d="M 424.800000,18.400000 L 424.800000,14.400000"/>
<text style="font-size: 12.000000; font-family: Verdana; font-style: Regular; fill: #000000;" x="415.800000" y="142.600000" >0.6</text>
</g>
<g id="xtick5">
<path style="fill: none; stroke: #000000; stroke-width: 0.500000; stroke-linejoin: miter; stroke-linecap: butt;  opacity: 1.000000; " d="M 536.400000,129.600000 L 536.400000,125.600000"/>
<path style="fill: none; stroke: #000000; stroke-width: 0.500000; stroke-linejoin: miter; stroke-linecap: butt;  opacity: 1.000000; " d="M 536.400000,18.400000 L 536.400000,14.400000"/>
<text style="font-size: 12.000000; font-family: Verdana; font-style: Regular; fill: #000000;" x="527.400000" y="142.600000" >0.8</text>
</g>
<g id="xtick6">
<text style="font-size: 12.000000; font-family: Verdana; font-style: Regular; fill: #000000;" x="639.500000" y="142.600000" >1.0</text>
</g>
</g>
<g id="matplotlib.axis2">
</g>
</g>
</g>
</svg>
